HIERARCHY
ROOT hip
{
  OFFSET 0 0 0
  CHANNELS 6 Xposition Yposition Zposition Zrotation Yrotation Xrotation
  JOINT abdomen
  {
    OFFSET 0 20.6881 -0.73152
    CHANNELS 3 Zrotation Xrotation Yrotation
    JOINT chest
    {
      OFFSET 0 11.7043 -0.48768
      CHANNELS 3 Zrotation Xrotation Yrotation
      JOINT neck
      {
        OFFSET 0 22.1894 -2.19456
        CHANNELS 3 Zrotation Xrotation Yrotation
        JOINT head
        {
          OFFSET -0.24384 7.07133 1.2192
          CHANNELS 3 Zrotation Xrotation Yrotation
          JOINT leftEye
          {
            OFFSET 4.14528 8.04674 8.04672
            CHANNELS 3 Zrotation Xrotation Yrotation
            End Site
            {
              OFFSET 1 0 0
            }
          }
          JOINT rightEye
          {
            OFFSET -3.6576 8.04674 8.04672
            CHANNELS 3 Zrotation Xrotation Yrotation
            End Site
            {
              OFFSET 1 0 0
            }
          }
        }
      }
      JOINT rCollar
      {
        OFFSET -2.68224 19.2634 -4.8768
        CHANNELS 3 Zrotation Xrotation Yrotation
        JOINT rShldr
        {
          OFFSET -8.77824 -1.95073 1.46304
          CHANNELS 3 Zrotation Xrotation Yrotation
          JOINT rForeArm
          {
            OFFSET -28.1742 -1.7115 0.48768
            CHANNELS 3 Zrotation Xrotation Yrotation
            JOINT rHand
            {
              OFFSET -22.5879 0.773209 7.07136
              CHANNELS 3 Zrotation Xrotation Yrotation
              JOINT rThumb1
              {
                OFFSET -1.2192 -0.487915 3.41376
                CHANNELS 3 Zrotation Xrotation Yrotation
                JOINT rThumb2
                {
                  OFFSET -3.37035 -0.52449 3.41376
                  CHANNELS 3 Zrotation Xrotation Yrotation
                  End Site
                  {
                    OFFSET -1.78271 -1.18214 1.43049
                  }
                }
              }
              JOINT rIndex1
              {
                OFFSET -7.75947 0.938293 5.60832
                CHANNELS 3 Zrotation Xrotation Yrotation
                JOINT rIndex2
                {
                  OFFSET -2.54057 -0.884171 1.56538
                  CHANNELS 3 Zrotation Xrotation Yrotation
                  End Site
                  {
                    OFFSET -1.62519 -0.234802 1.16502
                  }
                }
              }
              JOINT rMid1
              {
                OFFSET -8.24714 1.18213 3.41376
                CHANNELS 3 Zrotation Xrotation Yrotation
                JOINT rMid2
                {
                  OFFSET -3.10165 -0.590103 1.0647
                  CHANNELS 3 Zrotation Xrotation Yrotation
                  End Site
                  {
                    OFFSET -2.48547 -0.328903 0.83742
                  }
                }
              }
              JOINT rRing1
              {
                OFFSET -8.82822 0.546677 1.51678
                CHANNELS 3 Zrotation Xrotation Yrotation
                JOINT rRing2
                {
                  OFFSET -2.60934 -0.819778 -0.0198488
                  CHANNELS 3 Zrotation Xrotation Yrotation
                  End Site
                  {
                    OFFSET -2.33842 -0.294052 0.168128
                  }
                }
              }
              JOINT rPinky1
              {
                OFFSET -8.27202 -0.0477905 -0.4584
                CHANNELS 3 Zrotation Xrotation Yrotation
                JOINT rPinky2
                {
                  OFFSET -1.82734 -0.647385 -0.700984
                  CHANNELS 3 Zrotation Xrotation Yrotation
                  End Site
                  {
                    OFFSET -1.69225 -0.51767 -0.607171
                  }
                }
              }
            }
          }
        }
      }
      JOINT lCollar
      {
        OFFSET 2.68224 19.2634 -4.8768
        CHANNELS 3 Zrotation Xrotation Yrotation
        JOINT lShldr
        {
          OFFSET 8.77824 -1.95073 1.46304
          CHANNELS 3 Zrotation Xrotation Yrotation
          JOINT lForeArm
          {
            OFFSET 28.1742 -1.7115 0.48768
            CHANNELS 3 Zrotation Xrotation Yrotation
            JOINT lHand
            {
              OFFSET 22.5879 0.773209 7.07136
              CHANNELS 3 Zrotation Xrotation Yrotation
              JOINT lThumb1
              {
                OFFSET 1.2192 -0.487915 3.41376
                CHANNELS 3 Zrotation Xrotation Yrotation
                JOINT lThumb2
                {
                  OFFSET 3.37035 -0.52449 3.41376
                  CHANNELS 3 Zrotation Xrotation Yrotation
                  End Site
                  {
                    OFFSET 1.78271 -1.18214 1.43049
                  }
                }
              }
              JOINT lIndex1
              {
                OFFSET 7.75947 0.938293 5.60832
                CHANNELS 3 Zrotation Xrotation Yrotation
                JOINT lIndex2
                {
                  OFFSET 2.54057 -0.884171 1.56538
                  CHANNELS 3 Zrotation Xrotation Yrotation
                  End Site
                  {
                    OFFSET 1.62519 -0.234802 1.16502
                  }
                }
              }
              JOINT lMid1
              {
                OFFSET 8.24714 1.18213 3.41376
                CHANNELS 3 Zrotation Xrotation Yrotation
                JOINT lMid2
                {
                  OFFSET 3.10165 -0.590103 1.0647
                  CHANNELS 3 Zrotation Xrotation Yrotation
                  End Site
                  {
                    OFFSET 2.48547 -0.328903 0.83742
                  }
                }
              }
              JOINT lRing1
              {
                OFFSET 8.82822 0.546677 1.51678
                CHANNELS 3 Zrotation Xrotation Yrotation
                JOINT lRing2
                {
                  OFFSET 2.60934 -0.819778 -0.0198488
                  CHANNELS 3 Zrotation Xrotation Yrotation
                  End Site
                  {
                    OFFSET 2.33842 -0.294052 0.168128
                  }
                }
              }
              JOINT lPinky1
              {
                OFFSET 8.27202 -0.0477905 -0.4584
                CHANNELS 3 Zrotation Xrotation Yrotation
                JOINT lPinky2
                {
                  OFFSET 1.82734 -0.647385 -0.700984
                  CHANNELS 3 Zrotation Xrotation Yrotation
                  End Site
                  {
                    OFFSET 1.69225 -0.51767 -0.607171
                  }
                }
              }
            }
          }
        }
      }
    }
  }
  JOINT rButtock
  {
    OFFSET -8.77824 4.35084 1.2192
    CHANNELS 3 Zrotation Xrotation Yrotation
    JOINT rThigh
    {
      OFFSET 0 -1.70687 -2.19456
      CHANNELS 3 Zrotation Xrotation Yrotation
      JOINT rShin
      {
        OFFSET 0 -36.8199 0.73152
        CHANNELS 3 Zrotation Xrotation Yrotation
        JOINT rFoot
        {
          OFFSET 0.73152 -45.1104 -5.12064
          CHANNELS 3 Zrotation Xrotation Yrotation
          End Site
          {
            OFFSET -1.1221 -3.69964 12.103
          }
        }
      }
    }
  }
  JOINT lButtock
  {
    OFFSET 8.77824 4.35084 1.2192
    CHANNELS 3 Zrotation Xrotation Yrotation
    JOINT lThigh
    {
      OFFSET 0 -1.70687 -2.19456
      CHANNELS 3 Zrotation Xrotation Yrotation
      JOINT lShin
      {
        OFFSET 0 -36.8199 0.73152
        CHANNELS 3 Zrotation Xrotation Yrotation
        JOINT lFoot
        {
          OFFSET -0.73152 -45.1104 -5.12064
          CHANNELS 3 Zrotation Xrotation Yrotation
          End Site
          {
            OFFSET 1.1221 -3.69964 12.103
          }
        }
      }
    }
  }
}
MOTION
Frames:	6
Frame Time:	0.00833333
-39.8084 84.0179 -4.61872 0.0 0.0 0.0 -1.65552 -0.00357572 -0.0452726 -0.457102 0.0001549 -0.0791642 -1.87009e-14 2.38542e-15 1.98785e-16 -5.63663e-14 1.59028e-14 4.92303e-16 -0.0 0.0 0.0 -0.0 0.0 0.0 -9.09633e-15 -5.41611e-17 1.49089e-16 -1.94879e-13 -9.75287e-16 2.18663e-15 -3.38505e-12 9.73051e-13 2.8625e-14 -3.87615e-11 -1.21939e-12 2.67167e-13 -9.14373e-11 -5.3802e-13 6.71097e-13 -1.57926e-10 -9.31903e-13 1.16329e-12 -9.14342e-11 -5.39104e-13 6.55194e-13 7.73091 5.47488 0.417314 -9.14388e-11 -5.38309e-13 6.74278e-13 2.90554 0.965183 0.102902 -9.14355e-11 -5.3821e-13 6.75073e-13 10.2786 0.731801 0.0259123 -9.14417e-11 -5.34333e-13 6.87e-13 2.22167 -0.733487 -0.20892 -9.39125e-15 -5.35787e-17 -4.96962e-17 -1.98431e-13 -7.64079e-16 1.98785e-16 -3.39062e-12 -1.05058e-12 1.04958e-13 -3.87703e-11 8.10197e-13 2.22639e-13 -9.14583e-11 -5.29189e-13 6.87e-13 -1.57929e-10 -9.1918e-13 1.18635e-12 -9.14636e-11 -5.28767e-13 6.96541e-13 -7.73091 5.47488 -0.417314 -9.14564e-11 -5.29364e-13 6.87e-13 -2.90554 0.965183 -0.102902 -9.14629e-11 -5.29264e-13 6.8541e-13 -10.2786 0.731801 -0.0259123 -9.14521e-11 -5.27575e-13 6.67916e-13 -2.22167 -0.733487 0.20892 -2.03217e-16 0.0 -3.88251e-19 -0.803299 -1.9234 -0.00371929 -0.00881957 -2.07862 -0.0725811 -0.452182 3.99778 0.131454 2.03217e-16 0.0 3.88251e-19 -1.71747 -6.77989 0.164462 -0.00322928 6.71848 -0.0840819 0.481987 0.057273 -0.0558827
-46.7679 83.2884 -12.4559 -144.76 -81.0951 140.451 -0.507896 2.49406 -0.0361051 -0.269064 -0.814609 -0.0816913 1.35607 2.16357 0.439184 -1.955 -6.08543 0.302871 -0.0 0.0 0.0 -0.0 0.0 0.0 -7.09989e-15 2.02158e-13 3.96016e-14 6.15993 -11.3339 -1.11122 -4.09992 -1.83967 6.42867 0.108166 7.30653 0.996963 -1.74555e-10 -7.15984e-10 -6.07771e-12 -3.01863e-10 -1.18831e-09 -7.40599e-12 -1.74552e-10 -7.15981e-10 -6.09078e-12 7.73091 5.47488 0.417314 -1.74556e-10 -7.1598e-10 -6.07452e-12 2.90554 0.965183 0.102902 -1.74553e-10 -7.15985e-10 -6.07513e-12 10.2786 0.731801 0.0259123 -1.74559e-10 -7.15981e-10 -6.06544e-12 2.22167 -0.733487 -0.20892 -7.33576e-15 2.02157e-13 3.93994e-14 -7.37136 -14.7787 1.37415 4.55935 -2.14397 -7.04111 -0.127321 7.92967 -1.07629 -1.07637e-10 3.77113e-10 9.52045e-10 -1.63361e-10 3.61981e-10 1.6443e-09 -1.07644e-10 3.77128e-10 9.52052e-10 -7.73091 5.47488 -0.417314 -1.07638e-10 3.77128e-10 9.52046e-10 -2.90554 0.965183 -0.102902 -1.07645e-10 3.77128e-10 9.52043e-10 -10.2786 0.731801 -0.0259123 -1.07632e-10 3.77115e-10 9.52029e-10 -2.22167 -0.733487 0.20892 -2.03217e-16 0.0 -3.88251e-19 0.131288 -2.97473 4.75135 0.0603701 6.141 0.162673 -1.8514 -1.99241 -8.1442 2.03217e-16 0.0 3.88251e-19 -0.298879 -6.81204 -4.22818 -0.0585681 14.033 -0.301524 2.70604 -5.04813 10.7451
-46.7649 83.2868 -12.4299 -144.21 -81.1474 139.921 0.703346 5.13363 -0.0226053 -0.0719963 -1.67455 -0.083386 2.75085 4.44857 0.905332 -3.9455 -12.5117 0.635737 -0.0 0.0 0.0 -0.0 0.0 0.0 -3.87037e-15 4.21015e-13 8.81361e-14 12.1553 -23.3047 -2.44143 -7.98761 -3.70678 13.2448 -0.0628487 15.0259 2.10665 -2.60746e-10 -8.02234e-10 2.7906e-11 -4.50303e-10 -1.28172e-09 5.45205e-11 -2.60744e-10 -8.02226e-10 2.78961e-11 7.73091 5.47488 0.417314 -2.60748e-10 -8.02227e-10 2.79092e-11 2.90554 0.965183 0.102902 -2.60744e-10 -8.02236e-10 2.7907e-11 10.2786 0.731801 0.0259123 -2.60751e-10 -8.02232e-10 2.79143e-11 2.22167 -0.733487 -0.20892 -4.04399e-15 4.21014e-13 8.79281e-14 -14.28 -30.3691 3.16564 8.81059 -4.30231 -14.5156 0.0743977 16.3124 -2.28613 -1.09335e-10 5.75802e-10 2.05271e-09 -1.40351e-10 3.71221e-10 3.54482e-09 -1.09345e-10 5.75832e-10 2.05271e-09 -7.73091 5.47488 -0.417314 -1.09339e-10 5.75833e-10 2.05271e-09 -2.90554 0.965183 -0.102902 -1.09347e-10 5.75833e-10 2.0527e-09 -10.2786 0.731801 -0.0259123 -1.09331e-10 5.75803e-10 2.05269e-09 -2.22167 -0.733487 0.20892 -2.03217e-16 0.0 -3.88251e-19 1.30906 -4.04594 9.79306 0.0581412 14.8309 0.423552 -5.19972 -8.00437 -17.053 2.03217e-16 0.0 3.88251e-19 1.19575 -6.79865 -8.86843 -0.0520427 21.7633 -0.552825 7.12331 -9.84004 22.4249
-46.7624 83.2835 -12.39 -143.849 -81.2273 139.581 1.78496 7.48933 -0.0178196 0.106795 -2.44414 -0.0867996 3.96818 6.48919 1.3251 -5.66331 -18.2542 0.951374 -0.0 0.0 0.0 -0.0 0.0 0.0 -3.10702e-15 6.06581e-13 1.18507e-13 16.9319 -33.9452 -3.94112 -11.0829 -5.24165 19.3602 -0.488325 21.892 3.19738 -3.40789e-10 -2.14688e-09 -1.95753e-11 -5.89737e-10 -3.56307e-09 -2.45445e-11 -3.40787e-10 -2.14686e-09 -1.95827e-11 7.73091 5.47488 0.417314 -3.4079e-10 -2.14686e-09 -1.95721e-11 2.90554 0.965183 0.102902 -3.40786e-10 -2.14688e-09 -1.95755e-11 10.2786 0.731801 0.0259123 -3.40794e-10 -2.14687e-09 -1.95703e-11 2.22167 -0.733487 -0.20892 -3.22478e-15 6.06579e-13 1.18297e-13 -19.2786 -44.2129 5.56552 12.1296 -6.04421 -21.2322 0.581544 23.7538 -3.49432 -1.39993e-10 1.1324e-09 2.85476e-09 -1.74226e-10 1.08778e-09 4.93053e-09 -1.40005e-10 1.13244e-09 2.85476e-09 -7.73091 5.47488 -0.417314 -1.4e-10 1.13244e-09 2.85476e-09 -2.90554 0.965183 -0.102902 -1.40009e-10 1.13244e-09 2.85476e-09 -10.2786 0.731801 -0.0259123 -1.3999e-10 1.1324e-09 2.85475e-09 -2.22167 -0.733487 0.20892 -2.03217e-16 0.0 -3.88251e-19 2.51863 -4.9507 14.2967 -0.0164109 22.5789 0.682609 -9.77122 -12.7291 -25.3452 2.03217e-16 0.0 3.88251e-19 2.52716 -6.75516 -13.0134 0.0194906 28.6602 -0.809789 12.7109 -13.0899 33.1889
-46.7598 83.2796 -12.3312 -143.402 -81.3353 139.16 2.54581 9.13534 -0.0350383 0.239914 -2.98786 -0.0944767 4.81247 7.92037 1.62177 -6.84561 -22.289 1.18321 -0.0 0.0 0.0 -0.0 0.0 0.0 -8.50907e-15 7.08917e-13 1.03467e-13 19.8176 -41.3129 -5.302 -13.0458 -6.20971 23.6532 -0.958376 26.6508 4.04462 -4.05458e-10 -6.6375e-09 -2.70719e-10 -7.06654e-10 -1.13143e-08 -4.56088e-10 -4.05457e-10 -6.63748e-09 -2.70726e-10 7.73091 5.47488 0.417314 -4.05459e-10 -6.63748e-09 -2.70716e-10 2.90554 0.965183 0.102902 -4.05455e-10 -6.6375e-09 -2.7072e-10 10.2786 0.731801 0.0259123 -4.05463e-10 -6.63749e-09 -2.70716e-10 2.22167 -0.733487 -0.20892 -8.58696e-15 7.08915e-13 1.03269e-13 -21.5726 -53.7955 8.26941 14.1965 -7.11416 -25.9504 1.14497 28.8754 -4.44511 -2.43054e-10 2.58376e-09 2.9103e-09 -3.50316e-10 3.57264e-09 5.02926e-09 -2.43067e-10 2.58381e-09 2.9103e-09 -7.73091 5.47488 -0.417314 -2.43062e-10 2.58381e-09 2.9103e-09 -2.90554 0.965183 -0.102902 -2.43071e-10 2.58381e-09 2.9103e-09 -10.2786 0.731801 -0.0259123 -2.43051e-10 2.58376e-09 2.91029e-09 -2.22167 -0.733487 0.20892 -2.03217e-16 0.0 -3.88251e-19 3.44589 -5.55027 17.4261 -0.11573 27.9736 0.887708 -13.7991 -15.4859 -31.3769 2.03217e-16 0.0 3.88251e-19 3.45256 -6.72166 -15.9212 0.113828 33.475 -1.01706 17.3869 -14.5617 40.8579
-46.7525 83.2766 -12.3057 -142.999 -81.3442 138.79 2.86141 9.78733 -0.0872733 0.310809 -3.21545 -0.109165 5.16925 8.50072 1.74206 -7.35731 -23.9338 1.26709 -0.0 0.0 0.0 -0.0 0.0 0.0 -2.69176e-14 7.11805e-13 1.16204e-14 20.8223 -44.1449 -5.92269 -13.7784 -6.5656 25.3529 -1.18342 28.479 4.39682 -4.63682e-10 -1.63708e-08 -8.54013e-10 -8.19028e-10 -2.81722e-08 -1.46204e-09 -4.63682e-10 -1.63708e-08 -8.54021e-10 7.73091 5.47488 0.417314 -4.63683e-10 -1.63708e-08 -8.5401e-10 2.90554 0.965183 0.102902 -4.63679e-10 -1.63708e-08 -8.54013e-10 10.2786 0.731801 0.0259123 -4.63687e-10 -1.63708e-08 -8.54009e-10 2.22167 -0.733487 -0.20892 -2.6977e-14 7.11803e-13 1.14542e-14 -21.9876 -57.5581 9.81309 14.9522 -7.49309 -27.8027 1.4097 30.7785 -4.833 -4.82338e-10 5.7439e-09 1.68055e-09 -7.91183e-10 9.39269e-09 2.9125e-09 -4.8235e-10 5.74395e-09 1.68056e-09 -7.73091 5.47488 -0.417314 -4.82345e-10 5.74395e-09 1.68056e-09 -2.90554 0.965183 -0.102902 -4.82353e-10 5.74395e-09 1.68055e-09 -10.2786 0.731801 -0.0259123 -4.82335e-10 5.74391e-09 1.68055e-09 -2.22167 -0.733487 0.20892 -2.03217e-16 0.0 -3.88251e-19 3.8253 -5.791 18.6141 -0.166698 30.0738 0.974884 -15.5475 -16.4112 -33.7964 2.03217e-16 0.0 3.88251e-19 3.80978 -6.74069 -17.1003 0.162834 35.3771 -1.10756 19.3734 -14.9475 43.8733
